<svg id="图层_1" data-name="图层 1" xmlns="http://www.w3.org/2000/svg" viewBox="0 0 96 96"><circle cx="48" cy="48" r="47" opacity="0.5"/><path d="M53,36a1,1,0,0,1,1,1V59a1,1,0,0,1-1,1H43a1,1,0,0,1-1-1V37a1,1,0,0,1,1-1H53m0-2H43a3,3,0,0,0-3,3V59a3,3,0,0,0,3,3H53a3,3,0,0,0,3-3V37a3,3,0,0,0-3-3Z" fill="#fff"/><path d="M36,48a11.93,11.93,0,0,1,2-6.62V38.21a14,14,0,0,0,0,19.58V54.62A11.93,11.93,0,0,1,36,48Z" fill="#fff"/><path d="M60,48a11.93,11.93,0,0,1-2,6.62v3.17a14,14,0,0,0,0-19.58v3.17A11.93,11.93,0,0,1,60,48Z" fill="#fff"/></svg>