<svg id="图层_1" data-name="图层 1" xmlns="http://www.w3.org/2000/svg" viewBox="0 0 128 128"><circle cx="64" cy="64" r="63" opacity="0.75"/><path d="M69,52a1,1,0,0,1,1,1V75a1,1,0,0,1-1,1H59a1,1,0,0,1-1-1V53a1,1,0,0,1,1-1H69m0-2H59a3,3,0,0,0-3,3V75a3,3,0,0,0,3,3H69a3,3,0,0,0,3-3V53a3,3,0,0,0-3-3Z" fill="#fff"/><path d="M52,64a11.93,11.93,0,0,1,2-6.62V54.21a14,14,0,0,0,0,19.58V70.62A11.93,11.93,0,0,1,52,64Z" fill="#fff"/><path d="M76,64a11.93,11.93,0,0,1-2,6.62v3.17a14,14,0,0,0,0-19.58v3.17A11.93,11.93,0,0,1,76,64Z" fill="#fff"/></svg>