<svg id="图层_1" data-name="图层 1" xmlns="http://www.w3.org/2000/svg" viewBox="0 0 64 64"><circle cx="32" cy="32" r="30" opacity="0.5"/><path d="M32,11A21,21,0,1,1,11,32,21,21,0,0,1,32,11m0-2A23,23,0,1,0,55,32,23,23,0,0,0,32,9Z" fill="#fff"/><path d="M32,45a13,13,0,0,1-10.91-6l-1.74,1a15,15,0,0,0,25.41-.18l-1.74-1A13,13,0,0,1,32,45Z" fill="#fff"/><path d="M45,32a12.86,12.86,0,0,1-1,5.09l1.74,1A15,15,0,0,0,33,17.05v2A13,13,0,0,1,45,32Z" fill="#fff"/><path d="M19,32A13,13,0,0,1,31,19.05v-2A15,15,0,0,0,18.39,38.28l1.74-1A13,13,0,0,1,19,32Z" fill="#fff"/></svg>