<svg id="图层_1" data-name="图层 1" xmlns="http://www.w3.org/2000/svg" viewBox="0 0 96 96"><circle cx="48" cy="48" r="47" opacity="0.75"/><path d="M48,9A39,39,0,1,1,9,48,39.05,39.05,0,0,1,48,9m0-3A42,42,0,1,0,90,48,42,42,0,0,0,48,6Z" fill="#fff"/><path d="M73,48a25,25,0,0,1-2.06,9.94l2.61,1.51A28,28,0,0,0,50,20.08v3A25,25,0,0,1,73,48Z" fill="#fff"/><path d="M23,48A25,25,0,0,1,46,23.09v-3A28,28,0,0,0,22.24,59l2.63-1.51A24.91,24.91,0,0,1,23,48Z" fill="#fff"/><path d="M48,73A25,25,0,0,1,26.68,61l-2.61,1.5A28,28,0,0,0,71.66,63l-2.61-1.51A25,25,0,0,1,48,73Z" fill="#fff"/></svg>