<svg id="图层_1" data-name="图层 1" xmlns="http://www.w3.org/2000/svg" viewBox="0 0 64 64"><circle cx="32" cy="32" r="30" fill="#3790fa" opacity="0.5"/><path d="M37.31,12l1.34,5.82L39.14,20l2.08-.69,5.55-1.84-1.42,5.87-.49,2,2,.41,5.24,1.07L48.4,30.9l-1.28,1.41,1.34,1.35,3.62,3.65-5.94,1.42L44,39.24l.69,2.07,1.73,5.2-5.53-1.72-2.11-.65-.44,2.17-1.15,5.63-4.39-4.42L31.26,46l-1.41,1.71-3.62,4.4-1.88-5-.61-1.63-1.7.38L16.89,47l1-6.3.3-1.84-1.81-.43-4.13-1,3.61-3.09L17.48,33l-1.4-1.52-4-4.41,5-.69L19.38,26l-.68-2.24-2-6.42L23,18.76l1.91.43.48-1.9,1.27-5.18,3.72,4.06,1.43,1.56,1.48-1.52L37.31,12m1.12-4L31.8,14.82,25.57,8l-2.18,8.81-9.57-2.16,3,9.71L8,25.57l6.6,7.22L8,38.43l8,1.9-1.53,9.24,8.05-1.82L25.57,56l5.83-7.07,7,7.07,1.89-9.29,9.25,2.86-3-8.89L56,38.43l-6.12-6.18L56,25.57,47.29,23.8l2.28-9.37-9,3L38.43,8Z" fill="#fff"/></svg>