<svg id="图层_1" data-name="图层 1" xmlns="http://www.w3.org/2000/svg" viewBox="0 0 96 96"><circle cx="48" cy="48" r="47" opacity="0.75"/><path d="M39.33,14.69l6.83,7.47,2.3,2.51,2.2-2.59,6.13-7.19,1.7,10.51.6,3.68,3.46-1.36L73,23.62l-2.43,10-.73,3,3,.62,9.31,1.89-6.61,7.22L73.66,48.5l2,2L82.12,57,71.64,59.55l-3.18.76,1,3.1,3.1,9.28-9.84-3-3.16-1-.66,3.25-2,10L49.12,74.1l-2.33-2.35-2.11,2.56-6.41,7.77-3.33-8.89L34,70.74l-2.56.58L22.4,73.37l1.82-11,.45-2.76L22,59l-7.53-1.8L21,51.59l2.36-2-2.09-2.29L14,39.35l9.3-1.52,3.23-.52-.8-3.17L23,23.36l10.93,3.77,3.42,1.18.53-3.58,1.47-10M58.72,8,48.38,20.14,37.28,8,34.89,24.3,18.72,18.72l4.06,16.15L8,37.28l11,12L8,58.72l13.26,3.17L18.72,77.28l13.41-3L37.28,88,47,76.21,58.72,88l3.15-15.49,15.41,4.77L72.34,62.46,88,58.72,77.8,48.42,88,37.28,73.49,34.34l3.79-15.62-15.82,6.2L58.72,8Z" fill="#fff"/></svg>