<svg id="图层_1" data-name="图层 1" xmlns="http://www.w3.org/2000/svg" viewBox="0 0 96 96"><circle cx="48" cy="48" r="47" opacity="0.75"/><polygon points="50 89 50 75 46 75 46 89 50 89 50 89" fill="#fff"/><polygon points="50 20 50 6 46 6 46 20 50 20 50 20" fill="#fff"/><polygon points="90 46 76 46 76 50 90 50 90 46 90 46" fill="#fff"/><polygon points="20 46 6 46 6 50 20 50 20 46 20 46" fill="#fff"/><path d="M48,14A34,34,0,1,1,14,48,34,34,0,0,1,48,14m0-3A37,37,0,1,0,85,48,37,37,0,0,0,48,11Z" fill="#fff"/></svg>