<svg id="图层_1" data-name="图层 1" xmlns="http://www.w3.org/2000/svg" viewBox="0 0 64 64"><circle cx="32" cy="32" r="30" fill="#3790fa" opacity="0.5"/><polygon points="33 16 31 16 31 23 33 23 33 16 33 16" fill="#fff"/><polygon points="33 41 31 41 31 48 33 48 33 41 33 41" fill="#fff"/><polygon points="23 31 16 31 16 33 23 33 23 31 23 31" fill="#fff"/><polygon points="48 31 41 31 41 33 48 33 48 31 48 31" fill="#fff"/><circle cx="32" cy="32" r="3" fill="#fff"/><path d="M32,21A11,11,0,1,1,21,32,11,11,0,0,1,32,21m0-2A13,13,0,1,0,45,32,13,13,0,0,0,32,19Z" fill="#fff"/></svg>