<svg id="图层_1" data-name="图层 1" xmlns="http://www.w3.org/2000/svg" viewBox="0 0 96 96"><circle cx="48" cy="48" r="47" opacity="0.5"/><path d="M48,38l2,2v2H46V40l2-2m0-1.41-.71.7-2,2-.29.3V43h6V39.59l-.29-.3-2-2-.71-.7Z" fill="#fff"/><path d="M50,54v2l-2,2-2-2V54h4m1-1H45v3.41l.29.3,2,2,.71.7.71-.7,2-2,.29-.3V53Z" fill="#fff"/><path d="M42,46v4H40l-2-2,2-2h2m1-1H39.59l-.3.29-2,2-.7.71.7.71,2,2,.3.29H43V45Z" fill="#fff"/><path d="M56,46l2,2-2,2H54V46h2m.41-1H53v6h3.41l.3-.29,2-2,.7-.71-.7-.71-2-2-.3-.29Z" fill="#fff"/><path d="M48,35A13,13,0,1,1,35,48,13,13,0,0,1,48,35m0-1A14,14,0,1,0,62,48,14,14,0,0,0,48,34Z" fill="#fff"/><circle cx="48" cy="48" r="2" fill="#fff"/></svg>