<svg id="图层_1" data-name="图层 1" xmlns="http://www.w3.org/2000/svg" viewBox="0 0 128 128"><circle cx="64" cy="64" r="63" opacity="0.75"/><path d="M64,54l2,2v2H62V56l2-2m0-1.41-.71.7-2,2-.29.3V59h6V55.59l-.29-.3-2-2-.71-.7Z" fill="#fff"/><path d="M66,70v2l-2,2-2-2V70h4m1-1H61v3.41l.29.3,2,2,.71.7.71-.7,2-2,.29-.3V69Z" fill="#fff"/><path d="M58,62v4H56l-2-2,2-2h2m1-1H55.59l-.3.29-2,2-.7.71.7.71,2,2,.3.29H59V61Z" fill="#fff"/><path d="M72,62l2,2-2,2H70V62h2m.41-1H69v6h3.41l.3-.29,2-2,.7-.71-.7-.71-2-2-.3-.29Z" fill="#fff"/><path d="M64,51A13,13,0,1,1,51,64,13,13,0,0,1,64,51m0-1A14,14,0,1,0,78,64,14,14,0,0,0,64,50Z" fill="#fff"/><circle cx="64" cy="64" r="2" fill="#fff"/></svg>