<svg id="图层_1" data-name="图层 1" xmlns="http://www.w3.org/2000/svg" viewBox="0 0 64 64"><circle cx="32" cy="32" r="30" opacity="0.5"/><polygon points="21.75 35.89 20.33 37.3 26.7 43.67 28.11 42.25 21.75 35.89 21.75 35.89" fill="#fff"/><path d="M21.9,21.9c3.48.47,7,1.34,7.86,2.2L40.85,35.19l-5.66,5.66L24.1,29.76c-.86-.86-1.73-4.38-2.2-7.86m-2.26-2.26s.75,9.23,3.05,11.53l12.5,12.51,8.49-8.49L31.17,22.69c-2.3-2.3-11.53-3.05-11.53-3.05Z" fill="#fff"/><polygon points="21.04 30.94 19.63 32.35 31.65 44.37 33.06 42.96 21.04 30.94 21.04 30.94" fill="#fff"/><polygon points="37.3 20.33 35.89 21.75 42.25 28.11 43.67 26.7 37.3 20.33 37.3 20.33" fill="#fff"/><polygon points="32.35 19.63 30.94 21.04 42.96 33.06 44.37 31.65 32.35 19.63 32.35 19.63" fill="#fff"/></svg>