<svg id="图层_1" data-name="图层 1" xmlns="http://www.w3.org/2000/svg" viewBox="0 0 24 24"><rect x="2" y="20" width="20" height="1" fill="#262626"/><path d="M11.59,16h1.16l2.93-5.08a4.5,4.5,0,1,0-1-.3ZM15.2,9.74a3.48,3.48,0,1,1,1.3.26l-.27,0A3.51,3.51,0,0,1,15.2,9.74Z" fill="#262626"/><path d="M16.19,16H12.41L13,17h3.2A1.81,1.81,0,0,1,18,18.81V20H6V18.81A1.81,1.81,0,0,1,7.81,17h4l-.58-1H7.81A2.81,2.81,0,0,0,5,18.81V21H19V18.81A2.81,2.81,0,0,0,16.19,16Z" fill="#262626"/><polygon points="12.99 17 12.41 16 11.25 16 11.83 17 12.99 17" fill="#262626"/></svg>