<svg id="图层_1" data-name="图层 1" xmlns="http://www.w3.org/2000/svg" viewBox="0 0 24 24"><rect x="2" y="20" width="20" height="1" fill="#262626"/><path d="M9.3,10.62a4.64,4.64,0,0,1-1,.3L11.25,16h1.16Z" fill="#262626"/><path d="M7.5,10a3.53,3.53,0,1,1,1.3-.26l.5.88a4.63,4.63,0,1,0-1,.3L7.77,10Z" fill="#262626"/><path d="M8.8,9.74a3.51,3.51,0,0,1-1,.23l.55.95a4.64,4.64,0,0,0,1-.3Z" fill="#262626"/><path d="M16.19,16H12.41L13,17h3.2A1.81,1.81,0,0,1,18,18.81V20H6V18.81A1.81,1.81,0,0,1,7.81,17h4l-.58-1H7.81A2.81,2.81,0,0,0,5,18.81V21H19V18.81A2.81,2.81,0,0,0,16.19,16Z" fill="#262626"/><polygon points="12.99 17 12.41 16 11.25 16 11.83 17 12.99 17" fill="#262626"/></svg>