<svg id="图层_1" data-name="图层 1" xmlns="http://www.w3.org/2000/svg" viewBox="0 0 96 96"><circle cx="48" cy="48.32" r="47" opacity="0.75"/><path d="M59,60V57a4,4,0,0,0-4-4H49.6l-5.8-6.91a6.49,6.49,0,1,0-3.3.91,6.62,6.62,0,0,0,1.34-.14L47,53H41a4,4,0,0,0-4,4v3H34v2H62V60ZM40.5,45l-.25,0A4.49,4.49,0,0,1,36,40.5a4.75,4.75,0,0,1,0-.53,4.49,4.49,0,1,1,6.43,4.55A4.42,4.42,0,0,1,40.5,45ZM53.94,60H39V57a2,2,0,0,1,2-2H55a2,2,0,0,1,2,2v3Z" fill="#fff"/><g opacity="0.4"><circle cx="14.89" cy="48" r="7" fill="#fff"/></g><polygon points="15.89 45.43 15.89 44 11.89 48 15.89 52 15.89 50.57 13.33 48 15.89 45.43" fill="#fff"/><g opacity="0.4"><circle cx="81.11" cy="48" r="7" fill="#fff"/></g><polygon points="80.11 50.57 80.11 52 84.11 48 80.11 44 80.11 45.43 82.67 48 80.11 50.57" fill="#fff"/><g opacity="0.4"><circle cx="48" cy="14.89" r="7" fill="#fff"/></g><polygon points="50.57 15.89 52 15.89 48 11.89 44 15.89 45.43 15.89 48 13.33 50.57 15.89" fill="#fff"/><g opacity="0.4"><circle cx="48" cy="81.11" r="7" fill="#fff"/></g><polygon points="45.43 80.11 44 80.11 48 84.11 52 80.11 50.57 80.11 48 82.67 45.43 80.11" fill="#fff"/></svg>