<svg id="图层_1" data-name="图层 1" xmlns="http://www.w3.org/2000/svg" viewBox="0 0 96 96"><circle cx="48" cy="48.32" r="47" opacity="0.75"/><rect x="59" y="60" width="3" height="2" fill="#fff"/><rect x="34" y="60" width="3" height="2" fill="#fff"/><path d="M52.2,46.09a6.41,6.41,0,0,0,2,.77L49,53H46.4Z" fill="#fff"/><path d="M60,40.5A4.75,4.75,0,0,0,60,40l.74-.89L59.16,37.8l0,.05a4.49,4.49,0,1,0-5.6,6.67L52.2,46.09a6.49,6.49,0,1,1,3.3.91,6.62,6.62,0,0,1-1.34-.14L55.75,45A4.49,4.49,0,0,0,60,40.5Z" fill="#fff"/><path d="M59.16,37.8l1.53,1.28L60,40a4.49,4.49,0,0,0-.83-2.12Z" fill="#fff"/><path d="M53.52,44.52a4.42,4.42,0,0,0,2,.48l.25,0-1.59,1.89a6.41,6.41,0,0,1-2-.77Z" fill="#fff"/><path d="M57,57a2,2,0,0,0-2-2H47.34L49,53h6a4,4,0,0,1,4,4v3H57Z" fill="#fff"/><path d="M41,55a2,2,0,0,0-2,2v3H37V57a4,4,0,0,1,4-4H46.4l-1.68,2Z" fill="#fff"/><polygon points="39 60 42.06 60 42.69 60.53 43.14 60 57 60 59 60 59 62 37 62 37 60 39 60" fill="#fff"/><polygon points="44.73 55 46.4 53 49.01 53 47.34 55 44.73 55" fill="#fff"/><polygon points="42.69 60.53 42.06 60 43.14 60 42.69 60.53" fill="#fff"/><g opacity="0.4"><circle cx="14.89" cy="47.89" r="7" fill="#fff"/></g><polygon points="15.89 45.33 15.89 43.89 11.89 47.89 15.89 51.89 15.89 50.46 13.33 47.89 15.89 45.33" fill="#fff"/><g opacity="0.4"><circle cx="81.11" cy="47.89" r="7" fill="#fff"/></g><polygon points="80.11 50.46 80.11 51.89 84.11 47.9 80.11 43.89 80.11 45.33 82.67 47.9 80.11 50.46" fill="#fff"/><g opacity="0.4"><circle cx="48" cy="14.79" r="7" fill="#fff"/></g><polygon points="50.57 15.79 52 15.79 48 11.79 44 15.79 45.43 15.79 48 13.22 50.57 15.79" fill="#fff"/><g opacity="0.4"><circle cx="48" cy="81" r="7" fill="#fff"/></g><polygon points="45.43 80 44 80 48 84 52 80 50.57 80 48 82.57 45.43 80" fill="#fff"/></svg>