<svg id="图层_1" data-name="图层 1" xmlns="http://www.w3.org/2000/svg" xmlns:xlink="http://www.w3.org/1999/xlink" viewBox="0 0 64 64"><defs><linearGradient id="未命名的渐变_5" x1="32" y1="55.68" x2="32" y2="22.32" gradientUnits="userSpaceOnUse"><stop offset="0" stop-color="#b6b6b6"/><stop offset="1" stop-color="#d5d5d5"/></linearGradient></defs><path d="M44.32,22.32H19.68A16.68,16.68,0,0,0,3,39H3A16.68,16.68,0,0,0,19.27,55.68h.38a8.44,8.44,0,0,0,6.64-3.21h0A8.47,8.47,0,0,1,32,49.79,8.44,8.44,0,0,1,38,52.54l.34.39.14.18h0a8.42,8.42,0,0,0,6.07,2.57l.52,0A16.68,16.68,0,0,0,61,39h0A16.68,16.68,0,0,0,44.32,22.32Z" fill="url(#未命名的渐变_5)"/><g opacity="0.2"><rect x="9.7" y="35.86" width="16.68" height="4.17" rx="2.09" fill="#333"/><rect x="15.96" y="29.6" width="4.17" height="16.68" rx="2.09" fill="#333"/></g><circle cx="42.62" cy="33" r="4.36" opacity="0.2"/><circle cx="49.55" cy="42.88" r="4.36" opacity="0.2"/><g opacity="0.2"><path d="M43.74,5V8.56a3.81,3.81,0,0,1-4,3.55H34a4,4,0,0,0-4,4v6.28" fill="none" stroke="#000" stroke-miterlimit="10" stroke-width="2"/></g></svg>