<svg id="图层_1" data-name="图层 1" xmlns="http://www.w3.org/2000/svg" viewBox="0 0 128 128"><circle cx="64" cy="64" r="63" opacity="0.75"/><path d="M68.35,57.33c-1-4.37-3-7.33-5.28-7.33s-4.37,3.12-5.36,7.67c-4.57,1-7.71,3-7.71,5.33,0,1.7,1.67,3.22,4.34,4.31V65.13C52.83,64.4,52,63.59,52,63c0-.91,1.94-2.32,5.33-3.19.65-.17,1.35-.31,2.09-.43A28.86,28.86,0,0,1,64,59c.94,0,1.83,0,2.67.11.1.58.18,1.18.24,1.81H65.38l1.68,2.78,1.32,2.2.1-.16.56-.93.25-.41,2.09-3.48H68.91c0-.52-.1-1-.18-1.54C73.32,60.17,76,61.92,76,63s-2.59,2.78-7.06,3.57l-.51.07c-.49.08-1,.15-1.52.2h-.1A27.81,27.81,0,0,1,64,67a29.09,29.09,0,0,1-3.62-.22V65.11l-2.79,1.66-2.21,1.32.16.09.94.56.42.25,3.48,2.09V68.76A32.48,32.48,0,0,0,64,69c.87,0,1.72,0,2.54-.11-.11.65-.24,1.26-.38,1.82C65.28,74.07,63.86,76,63,76c-.6,0-1.41-.82-2.15-2.32H58.61C59.7,76.34,61.24,78,63,78c2.52,0,4.67-3.61,5.56-8.72,0-.21,0-.44.08-.65,5.48-.81,9.41-3,9.41-5.63S74,58.11,68.35,57.33ZM64,57a30.53,30.53,0,0,0-4.14.27c.88-3.38,2.29-5.31,3.21-5.31s2.28,1.86,3.16,5.12C65.5,57.06,64.76,57,64,57Z" fill="#fff"/></svg>