<svg id="图层_1" data-name="图层 1" xmlns="http://www.w3.org/2000/svg" viewBox="0 0 96 96"><circle cx="48" cy="48" r="47" opacity="0.5"/><path d="M52.35,41.65c-1-4.36-3-7.33-5.28-7.33S42.7,37.45,41.71,42C37.14,43,34,45,34,47.32c0,1.7,1.67,3.23,4.34,4.31V49.45C36.83,48.72,36,47.92,36,47.32c0-.91,1.94-2.32,5.33-3.19.65-.17,1.35-.31,2.09-.43A28.86,28.86,0,0,1,48,43.34q1.41,0,2.67.12c.1.57.18,1.18.24,1.81H49.38l1.68,2.78,1.32,2.19.1-.15.56-.94.25-.41,2.09-3.47H52.91c0-.52-.1-1.05-.18-1.55,4.59.77,7.27,2.53,7.27,3.6s-2.59,2.78-7.06,3.57l-.51.08c-.49.07-1,.14-1.52.19h-.1c-.89.08-1.82.13-2.81.13a29.09,29.09,0,0,1-3.62-.22V49.43L41.59,51.1l-2.21,1.31.16.1.94.56.42.25,3.48,2.08V53.08a32.48,32.48,0,0,0,3.62.21c.87,0,1.72,0,2.54-.1-.11.64-.24,1.25-.38,1.81-.88,3.4-2.3,5.33-3.21,5.33-.6,0-1.41-.82-2.15-2.32H42.61c1.09,2.65,2.63,4.31,4.34,4.31,2.52,0,4.67-3.61,5.56-8.72,0-.2.05-.43.08-.64,5.48-.82,9.41-3,9.41-5.64S58,42.43,52.35,41.65ZM48,41.35a32.23,32.23,0,0,0-4.14.27c.88-3.38,2.29-5.31,3.21-5.31s2.28,1.86,3.16,5.13C49.5,41.39,48.76,41.35,48,41.35Z" fill="#fff"/></svg>