<?xml version="1.0" encoding="utf-8"?>
<!-- Generator: Adobe Illustrator 24.0.0, SVG Export Plug-In . SVG Version: 6.00 Build 0)  -->
<svg version="1.1" id="图层_1" xmlns="http://www.w3.org/2000/svg" xmlns:xlink="http://www.w3.org/1999/xlink" x="0px" y="0px"
	 viewBox="0 0 96 96" style="enable-background:new 0 0 96 96;" xml:space="preserve">
<style type="text/css">
	.st0{fill-rule:evenodd;clip-rule:evenodd;fill:#80A2FF;}
	.st1{fill-rule:evenodd;clip-rule:evenodd;fill:#0045FF;}
	.st2{fill-rule:evenodd;clip-rule:evenodd;fill:#99B5FF;}
	.st3{fill-rule:evenodd;clip-rule:evenodd;fill:#8CA8F2;}
	.st4{fill-rule:evenodd;clip-rule:evenodd;fill:#668FFF;}
	.st5{fill-rule:evenodd;clip-rule:evenodd;fill:#B3C8FF;}
	.st6{fill-rule:evenodd;clip-rule:evenodd;fill:#638CFC;}
	.st7{fill-rule:evenodd;clip-rule:evenodd;fill:#CCDAFF;}
</style>
<path class="st0" d="M48,6c3.3,0,6,2.7,6,6s-2.7,6-6,6s-6-2.7-6-6S44.7,6,48,6"/>
<path class="st1" d="M48,30c3.3,0,6,2.7,6,6s-2.7,6-6,6s-6-2.7-6-6S44.7,30,48,30"/>
<path class="st2" d="M72,54c3.3,0,6,2.7,6,6s-2.7,6-6,6s-6-2.7-6-6S68.7,54,72,54"/>
<path class="st3" d="M72,30c3.3,0,6,2.7,6,6s-2.7,6-6,6s-6-2.7-6-6S68.7,30,72,30"/>
<path class="st1" d="M60,18c3.3,0,6,2.7,6,6s-2.7,6-6,6s-6-2.7-6-6S56.7,18,60,18"/>
<path class="st1" d="M36,18c3.3,0,6,2.7,6,6s-2.7,6-6,6s-6-2.7-6-6S32.7,18,36,18"/>
<path class="st4" d="M24,30c3.3,0,6,2.7,6,6s-2.7,6-6,6s-6-2.7-6-6S20.7,30,24,30"/>
<path class="st1" d="M36,42c3.3,0,6,2.7,6,6s-2.7,6-6,6s-6-2.7-6-6S32.7,42,36,42"/>
<path class="st5" d="M12,42c3.3,0,6,2.7,6,6s-2.7,6-6,6s-6-2.7-6-6S8.7,42,12,42"/>
<path class="st6" d="M60,42c3.3,0,6,2.7,6,6s-2.7,6-6,6s-6-2.7-6-6S56.7,42,60,42"/>
<path class="st7" d="M84,42c3.3,0,6,2.7,6,6s-2.7,6-6,6s-6-2.7-6-6S80.7,42,84,42"/>
<path class="st0" d="M48,78c3.3,0,6,2.7,6,6s-2.7,6-6,6s-6-2.7-6-6S44.7,78,48,78"/>
<path class="st1" d="M48,54c3.3,0,6,2.7,6,6s-2.7,6-6,6s-6-2.7-6-6S44.7,54,48,54"/>
<path class="st1" d="M60,66c3.3,0,6,2.7,6,6s-2.7,6-6,6s-6-2.7-6-6S56.7,66,60,66"/>
<path class="st1" d="M35,66c3.3,0,6,2.7,6,6s-2.7,6-6,6s-6-2.7-6-6S31.7,66,35,66"/>
<path class="st4" d="M24,54c3.3,0,6,2.7,6,6s-2.7,6-6,6s-6-2.7-6-6S20.7,54,24,54"/>
</svg>
