<svg id="图层_1" data-name="图层 1" xmlns="http://www.w3.org/2000/svg" xmlns:xlink="http://www.w3.org/1999/xlink" viewBox="0 0 24 24"><defs><linearGradient id="未命名的渐变" x1="13.49" y1="5.77" x2="23.32" y2="5.77" gradientTransform="matrix(0.71, 0.71, 0.71, -0.71, 1.31, 9.19)" gradientUnits="userSpaceOnUse"><stop offset="0" stop-color="#031528" stop-opacity="0.9"/><stop offset="1" stop-color="#031528"/></linearGradient><linearGradient id="未命名的渐变_3" x1="2" y1="12.89" x2="20" y2="12.89" gradientTransform="matrix(1, 0, 0, -1, 0, 23.89)" xlink:href="#未命名的渐变"/></defs><rect x="16.91" y="12.67" width="3" height="10.9" transform="translate(-7.42 18.32) rotate(-45)" fill="url(#未命名的渐变)"/><path d="M15.61,13.91l7,7L21.2,22.33l-7-7,1.41-1.42m0-1.41-.7.71-1.42,1.41-.71.71.71.7,7,7,.71.71.71-.71,1.41-1.41.71-.71-.71-.7-7-7-.71-.71Z" fill="#fff"/><path d="M20,11a8.86,8.86,0,0,1-2.2,5.89,7.91,7.91,0,0,1-.91.92A9,9,0,1,1,20,11Z" fill="url(#未命名的渐变_3)"/><rect x="6.5" y="10" width="9" height="2" fill="#fff"/><rect x="10" y="6.5" width="2" height="9" fill="#fff"/><circle cx="11" cy="11" r="9.5" fill="none" stroke="#fff" stroke-miterlimit="10"/></svg>